Coordinates
version=1
nRows=29
nColumns=22
inDegrees=yes

Units are S.I. units (second, meters, Newtons, ...)
If the header above contains a line with 'inDegrees', this indicates whether rotational values are in degrees (yes) or radians (no).

endheader
time	pelvis_tilt	pelvis_list	pelvis_rotation	pelvis_tx	pelvis_ty	pelvis_tz	hip_flexion_r	hip_adduction_r	hip_rotation_r	knee_angle_r	ankle_angle_r	subtalar_angle_r	hip_flexion_l	hip_adduction_l	hip_rotation_l	knee_angle_l	ankle_angle_l	subtalar_angle_l	lumbar_extension	lumbar_bending	lumbar_rotation
      3.42000000	     -3.76782104	      4.08058719	     -0.69378219	     -0.83846406	      0.92315929	     -0.07290661	     -5.44594396	     -4.76878688	     -9.46608895	    -21.86760429	     18.25644585	      6.89815021	     22.39443338	      5.32868567	     -4.40758064	    -22.21620529	      7.41300630	      5.19674722	     -3.23330504	     -9.84664544	      5.45348297
      3.43000000	     -3.71067668	      3.75725234	     -1.05714445	     -0.84660580	      0.92294183	     -0.07084738	     -5.32566919	     -4.29237987	     -9.38742848	    -21.16492806	     18.79415964	      6.58526221	     22.89529512	      4.68895243	     -4.74905061	    -22.25958959	      7.01634661	      5.86387213	     -3.69779900	     -9.44619954	      5.66554191
      3.44000000	     -3.59543039	      3.39448642	     -1.41885648	     -0.85474487	      0.92283143	     -0.06877940	     -5.26985000	     -3.76009832	     -9.32396359	    -20.45439146	     19.21514249	      6.26100988	     23.30981727	      4.00989169	     -5.07192011	    -22.28050186	      6.67871013	      6.39701996	     -4.24588185	     -9.00755897	      5.88835066
      3.45000000	     -3.45084984	      3.02424699	     -1.75553434	     -0.86287590	      0.92278456	     -0.06672667	     -5.23441040	     -3.21093934	     -9.32343987	    -19.77424950	     19.59451383	      5.76289731	     23.65291278	      3.33883612	     -5.31688725	    -22.24175439	      6.28938941	      7.07451756	     -4.84376432	     -8.57301239	      6.07828054
      3.46000000	     -3.25961942	      2.65917350	     -2.07593947	     -0.87100846	      0.92282134	     -0.06471099	     -5.21668726	     -2.66728870	     -9.36611694	    -19.16196174	     19.95703436	      5.16291906	     23.90227123	      2.69250406	     -5.49593595	    -22.13524097	      5.87201014	      7.80006002	     -5.51181933	     -8.15241361	      6.25241113
      3.47000000	     -3.03905343	      2.29553212	     -2.37719862	     -0.87904406	      0.92292189	     -0.06270664	     -5.25552959	     -2.11161052	     -9.40338247	    -18.51665750	     20.28709621	      4.55631499	     24.08151558	      2.06075652	     -5.64898819	    -21.98528656	      5.50239773	      8.46402875	     -6.20656739	     -7.74908511	      6.42521133
      3.48000000	     -2.77824134	      1.89891358	     -2.67175220	     -0.88703398	      0.92310176	     -0.06071011	     -5.33898583	     -1.51459780	     -9.40038267	    -17.87855412	     20.51340108	      4.04375624	     24.18619774	      1.40857663	     -5.76043284	    -21.80500328	      5.25675004	      8.95447285	     -6.94911457	     -7.31630491	      6.61611186
      3.49000000	     -2.49071952	      1.53795343	     -2.94446514	     -0.89501136	      0.92333911	     -0.05877012	     -5.41327636	     -0.96067782	     -9.39426121	    -17.32553112	     20.80450222	      3.34068204	     24.21017511	      0.82183334	     -5.80376682	    -21.53390852	      4.95965429	      9.59885992	     -7.72666971	     -6.93373045	      6.75548229
      3.50000000	     -2.19932481	      1.15563087	     -3.20030249	     -0.90291683	      0.92360080	     -0.05687153	     -5.50163624	     -0.38096117	     -9.34299851	    -16.77107720	     21.02559122	      2.72405548	     24.20907164	      0.23198403	     -5.80334952	    -21.24663810	      4.77807284	     10.08965099	     -8.49564035	     -6.53003539	      6.89576407
      3.51000000	     -1.90417901	      0.75452550	     -3.43740083	     -0.91078044	      0.92389539	     -0.05503000	     -5.57141443	      0.21655460	     -9.25344398	    -16.27554730	     21.18826947	      2.09264695	     24.18415881	     -0.35426265	     -5.75244624	    -20.93681417	      4.68581043	     10.49715539	     -9.26251938	     -6.10756282	      7.01952587
      3.52000000	     -1.61854009	      0.32291166	     -3.65830036	     -0.91857892	      0.92420771	     -0.05324531	     -5.60578552	      0.84237725	     -9.12837375	    -15.84749376	     21.28386690	      1.45617725	     24.16379295	     -0.95367855	     -5.65925879	    -20.63431377	      4.68188629	     10.79612272	    -10.00630896	     -5.64956725	      7.13120523
      3.53000000	     -1.35382179	     -0.14806118	     -3.86363782	     -0.92629913	      0.92453219	     -0.05151577	     -5.58043459	      1.50346339	     -8.97960302	    -15.51341495	     21.30680058	      0.80719741	     24.16981767	     -1.58168206	     -5.54574864	    -20.35678022	      4.76133858	     10.98716439	    -10.71169487	     -5.14523929	      7.23938795
      3.54000000	     -1.11411759	     -0.66661542	     -4.06132836	     -0.93392435	      0.92487436	     -0.04983150	     -5.48556034	      2.20691325	     -8.79991160	    -15.28384225	     21.24352037	      0.19567777	     24.21801611	     -2.25580106	     -5.43761678	    -20.13514590	      4.91778888	     11.05985391	    -11.37249322	     -4.58338204	      7.33821600
      3.55000000	     -0.89934690	     -1.22903713	     -4.24417432	     -0.94143064	      0.92524229	     -0.04820166	     -5.32589567	      2.94963637	     -8.57531695	    -15.15616517	     21.10040977	     -0.29166651	     24.31658282	     -2.97678261	     -5.36877883	    -19.98842736	      5.13821663	     11.03675274	    -11.98896565	     -3.96839504	      7.41267238
      3.56000000	     -0.73564885	     -1.82156052	     -4.43287294	     -0.94876484	      0.92560251	     -0.04659815	     -5.09034892	      3.71588499	     -8.34140523	    -15.09587255	     20.94907327	     -0.91989002	     24.48821928	     -3.74421088	     -5.37003968	    -19.92580945	      5.35567501	     10.91525280	    -12.51581486	     -3.31955027	      7.53868117
      3.57000000	     -0.56934288	     -2.43448186	     -4.61063789	     -0.95590188	      0.92604577	     -0.04504582	     -4.85245804	      4.49314693	     -8.07087750	    -15.08117291	     20.68630473	     -1.21622095	     24.68209900	     -4.54284066	     -5.45328940	    -19.97561971	      5.61766603	     10.77941759	    -13.02284602	     -2.64870549	      7.63066485
      3.58000000	     -0.47642277	     -3.04333190	     -4.79071829	     -0.96283749	      0.92644085	     -0.04352568	     -4.53058554	      5.26029416	     -7.81367935	    -15.10438324	     20.41557485	     -1.62538120	     24.98429656	     -5.35935372	     -5.62912130	    -20.15899945	      5.84129050	     10.51709634	    -13.41075182	     -1.98388890	      7.75557925
      3.59000000	     -0.34008721	     -3.61904455	     -4.95122723	     -0.96950586	      0.92698712	     -0.04206293	     -4.29102865	      5.98394648	     -7.55047796	    -15.09572835	     20.06776302	     -1.79680345	     25.25393311	     -6.14601936	     -5.87948913	    -20.47513966	      6.05250821	     10.33576880	    -13.81727024	     -1.36686602	      7.82810880
      3.60000000	     -0.25707594	     -4.14466484	     -5.10224416	     -0.97594944	      0.92751914	     -0.04066203	     -4.00908211	      6.65191031	     -7.32388621	    -15.08235483	     19.70255953	     -2.02018456	     25.60474041	     -6.88820246	     -6.15776061	    -20.94997811	      6.22376185	     10.06312222	    -14.12588276	     -0.80722480	      7.89810570
      3.61000000	     -0.17383713	     -4.59244537	     -5.22549214	     -0.98211207	      0.92812301	     -0.03933291	     -3.76106599	      7.23339841	     -7.17010365	    -15.02924311	     19.34550085	     -2.25180849	     25.97057367	     -7.54660352	     -6.45958385	    -21.58641514	      6.34983678	      9.73866195	    -14.39277647	     -0.34302667	      7.91258349
      3.62000000	     -0.05660406	     -4.95834243	     -5.32612338	     -0.98800093	      0.92886778	     -0.03807039	     -3.59108533	      7.72514217	     -7.04479101	    -14.92006070	     18.96025230	     -2.44952258	     26.29390081	     -8.10586056	     -6.71787002	    -22.36118727	      6.47814450	      9.44337544	    -14.66198646	      0.01889468	      7.87106637
      3.63000000	      0.08303491	     -5.23383583	     -5.39358253	     -0.99362492	      0.92972012	     -0.03687780	     -3.48113641	      8.12072383	     -6.96305535	    -14.76107189	     18.57639358	     -2.65307643	     26.59493124	     -8.54947812	     -6.89672598	    -23.28905887	      6.61380066	      9.13712244	    -14.92034088	      0.26703593	      7.77229302
      3.64000000	      0.26608699	     -5.42989526	     -5.42919682	     -0.99899272	      0.93071289	     -0.03577342	     -3.45372776	      8.42795313	     -6.91141944	    -14.55198679	     18.18368307	     -2.80104627	     26.83619568	     -8.87562035	     -6.94649980	    -24.34566098	      6.76884107	      8.91822814	    -15.19706987	      0.41991586	      7.61331584
      3.65000000	      0.42204087	     -5.53344078	     -5.43020470	     -1.00413757	      0.93170836	     -0.03475434	     -3.41093137	      8.63989594	     -6.91001325	    -14.32607968	     17.83574285	     -3.04042573	     27.10845824	     -9.07223321	     -6.87231099	    -25.54027624	      6.93035562	      8.51014789	    -15.40973319	      0.46511254	      7.39611181
      3.66000000	      0.61428707	     -5.57872880	     -5.39721021	     -1.00906510	      0.93281064	     -0.03383247	     -3.42696450	      8.78507140	     -6.93300727	    -14.07726458	     17.48490652	     -3.20984021	     27.32335360	     -9.16085593	     -6.63638375	    -26.83491633	      7.11184407	      8.18983293	    -15.64278193	      0.44342857	      7.12135626
      3.67000000	      0.83307824	     -5.58023259	     -5.33563595	     -1.01379186	      0.93398306	     -0.03301450	     -3.47752688	      8.87481702	     -6.99920872	    -13.83159535	     17.16321643	     -3.32425535	     27.49559900	     -9.15989613	     -6.26006217	    -28.22711916	      7.29143372	      7.97222657	    -15.89032162	      0.37461461	      6.81454238
      3.68000000	      1.00440080	     -5.51056871	     -5.26650903	     -1.01834138	      0.93510655	     -0.03228037	     -3.46412154	      8.88915398	     -7.05139849	    -13.61632404	     16.85436516	     -3.51075620	     27.69106899	     -9.04792349	     -5.77800539	    -29.67981910	      7.49878940	      7.49065325	    -16.06004218	      0.23509637	      6.44400793
      3.69000000	      1.22045531	     -5.42565910	     -5.18034566	     -1.02268261	      0.93631359	     -0.03164125	     -3.51452256	      8.87515368	     -7.13631962	    -13.39130412	     16.57665656	     -3.59223762	     27.80883168	     -8.88421012	     -5.20757262	    -31.18709937	      7.68739433	      7.30938667	    -16.26991280	      0.08111298	      6.07382169
      3.70000000	      1.40219385	     -5.31118417	     -5.10536137	     -1.02690259	      0.93746751	     -0.03107448	     -3.48502064	      8.82181072	     -7.20374668	    -13.25808679	     16.29126597	     -3.71453257	     27.92764444	     -8.66470732	     -4.57549629	    -32.72036859	      7.88895260	      6.95448506	    -16.43421448	     -0.09561470	      5.67177061
